<svg width="234" height="56" viewBox="0 0 234 56" fill="none" xmlns="http://www.w3.org/2000/svg">
<g filter="url(#filter0_d_867_6034)">
<rect x="4.5" y="3" width="227" height="48" rx="12" fill="white" shape-rendering="crispEdges"/>
<path d="M25.148 23.2C25.764 23.2 26.296 23.326 26.758 23.564C27.22 23.802 27.584 24.138 27.836 24.558C28.088 24.992 28.214 25.496 28.214 26.056C28.214 26.616 28.088 27.12 27.836 27.554C27.584 27.988 27.22 28.324 26.758 28.562C26.282 28.8 25.75 28.912 25.148 28.912H22.264V33H21.508V23.2H25.148ZM22.264 28.212H25.078C25.792 28.212 26.366 28.016 26.8 27.624C27.22 27.232 27.444 26.7 27.444 26.056C27.444 25.412 27.22 24.894 26.8 24.502C26.38 24.11 25.806 23.9 25.092 23.9H22.264V28.212ZM35.5206 32.342V33H35.1006C34.6806 33 34.3866 32.902 34.1906 32.692C33.9946 32.496 33.9106 32.202 33.9386 31.824V31.53C33.7146 32.006 33.3786 32.384 32.9306 32.664C32.4686 32.944 31.8946 33.084 31.2226 33.084C30.4526 33.084 29.8366 32.902 29.3886 32.538C28.9266 32.174 28.7026 31.684 28.7026 31.054C28.7026 30.382 28.9406 29.864 29.4166 29.5C29.8926 29.136 30.5926 28.94 31.5026 28.94H33.9106V28.324C33.9106 27.736 33.7146 27.288 33.3506 26.952C32.9866 26.616 32.4686 26.448 31.8106 26.448C31.2226 26.448 30.7326 26.588 30.3686 26.84C30.0046 27.106 29.7666 27.456 29.6826 27.89H28.9686C29.0526 27.246 29.3606 26.742 29.8646 26.378C30.3686 26.014 31.0266 25.818 31.8386 25.818C32.7206 25.818 33.4066 26.042 33.8966 26.476C34.3726 26.924 34.6246 27.54 34.6246 28.352V31.656C34.6246 31.88 34.6806 32.048 34.7926 32.16C34.9046 32.286 35.0586 32.342 35.2546 32.342H35.5206ZM33.9106 29.556H31.4466C30.7886 29.556 30.2846 29.682 29.9486 29.934C29.5986 30.186 29.4306 30.55 29.4306 31.012C29.4306 31.46 29.5846 31.81 29.9206 32.076C30.2566 32.342 30.7046 32.468 31.2646 32.468C32.0766 32.468 32.7206 32.258 33.1966 31.824C33.6726 31.39 33.9106 30.83 33.9106 30.13V29.556ZM36.9368 30.816C36.9648 31.334 37.1748 31.74 37.5948 32.034C38.0008 32.328 38.5468 32.468 39.2188 32.468C39.8068 32.468 40.2828 32.342 40.6748 32.09C41.0528 31.838 41.2488 31.516 41.2488 31.096C41.2488 30.774 41.1508 30.522 40.9688 30.34C40.7868 30.158 40.5488 30.032 40.2688 29.948C39.9748 29.864 39.5828 29.794 39.1068 29.71C38.5048 29.626 38.0148 29.542 37.6508 29.43C37.2728 29.318 36.9648 29.136 36.7268 28.884C36.4748 28.632 36.3628 28.282 36.3628 27.834C36.3628 27.442 36.4748 27.092 36.6988 26.784C36.9228 26.476 37.2448 26.238 37.6368 26.07C38.0288 25.902 38.4908 25.804 38.9948 25.804C39.8068 25.804 40.4648 25.986 40.9688 26.35C41.4728 26.714 41.7668 27.232 41.8368 27.904H41.1228C41.0528 27.456 40.8288 27.092 40.4508 26.826C40.0728 26.56 39.5968 26.42 39.0368 26.42C38.4488 26.42 37.9728 26.546 37.6088 26.798C37.2448 27.05 37.0628 27.386 37.0628 27.778C37.0628 28.086 37.1468 28.324 37.3288 28.492C37.5108 28.66 37.7348 28.786 38.0008 28.842C38.2528 28.912 38.6308 28.982 39.1348 29.038C39.7368 29.122 40.2408 29.234 40.6328 29.36C41.0248 29.486 41.3328 29.682 41.5848 29.948C41.8368 30.228 41.9628 30.592 41.9628 31.054C41.9628 31.67 41.6968 32.174 41.1648 32.538C40.6328 32.902 39.9888 33.084 39.2188 33.084C38.3228 33.084 37.5948 32.888 37.0628 32.496C36.5168 32.104 36.2368 31.544 36.2228 30.816H36.9368ZM43.8551 26.56H42.5111V25.902H43.8551V23.914H44.5691V25.902H46.4591V26.56H44.5691V31.334C44.5691 31.698 44.6391 31.964 44.7931 32.118C44.9331 32.272 45.1851 32.342 45.5491 32.342H46.5851V33H45.5211C44.9191 33 44.4851 32.874 44.2331 32.608C43.9811 32.356 43.8551 31.936 43.8551 31.348V26.56ZM47.5119 27.554C47.7919 27.008 48.1699 26.588 48.6739 26.28C49.1779 25.972 49.7379 25.818 50.3819 25.818C50.9979 25.818 51.5579 25.958 52.0479 26.224C52.5239 26.49 52.9159 26.868 53.1959 27.372C53.4759 27.876 53.6299 28.478 53.6579 29.164C53.6579 29.304 53.6439 29.402 53.6439 29.458H47.8619C47.8479 29.5 47.8479 29.556 47.8479 29.626C47.8479 30.186 47.9739 30.676 48.1979 31.096C48.4219 31.516 48.7299 31.852 49.1219 32.09C49.5139 32.328 49.9479 32.44 50.4519 32.44C51.0259 32.44 51.5299 32.286 51.9639 31.964C52.3839 31.642 52.6779 31.208 52.8179 30.648H53.5459C53.3779 31.376 53.0139 31.964 52.4679 32.412C51.9219 32.86 51.2639 33.084 50.5079 33.084C49.8359 33.084 49.2479 32.93 48.7299 32.622C48.2119 32.314 47.8059 31.894 47.5259 31.334C47.2459 30.788 47.1059 30.158 47.1059 29.444C47.1059 28.744 47.2319 28.114 47.5119 27.554ZM52.9159 28.856C52.8459 28.1 52.5799 27.498 52.1319 27.078C51.6839 26.658 51.0959 26.448 50.3959 26.448C49.9619 26.448 49.5699 26.56 49.2059 26.756C48.8419 26.952 48.5339 27.232 48.3099 27.596C48.0719 27.96 47.9319 28.38 47.9039 28.856H52.9159ZM65.4073 25.902V32.566C65.4073 33.686 65.1273 34.526 64.5813 35.072C64.0213 35.618 63.1813 35.884 62.0333 35.884C61.1513 35.884 60.4373 35.688 59.8773 35.282C59.3173 34.89 58.9813 34.316 58.8693 33.56H59.6113C59.7233 34.092 59.9893 34.512 60.4233 34.806C60.8573 35.1 61.4173 35.24 62.0893 35.24C62.9573 35.24 63.6153 35.03 64.0493 34.596C64.4693 34.162 64.6933 33.476 64.6933 32.538V31.292C64.4553 31.852 64.1053 32.3 63.6433 32.608C63.1813 32.93 62.6213 33.084 61.9773 33.084C61.3333 33.084 60.7453 32.944 60.2413 32.636C59.7373 32.342 59.3313 31.922 59.0513 31.376C58.7713 30.83 58.6313 30.186 58.6313 29.444C58.6313 28.744 58.7713 28.114 59.0513 27.554C59.3313 27.008 59.7373 26.588 60.2413 26.28C60.7453 25.972 61.3333 25.818 61.9773 25.818C62.6213 25.818 63.1673 25.972 63.6433 26.28C64.1053 26.588 64.4553 27.022 64.6793 27.554L64.7913 25.902H65.4073ZM63.4193 32.062C63.8253 31.81 64.1473 31.46 64.3713 31.012C64.5953 30.564 64.7073 30.046 64.7073 29.458C64.7073 28.87 64.5953 28.352 64.3713 27.89C64.1473 27.442 63.8253 27.078 63.4193 26.826C63.0133 26.574 62.5513 26.448 62.0333 26.448C61.5013 26.448 61.0393 26.574 60.6333 26.826C60.2273 27.078 59.9193 27.442 59.6953 27.89C59.4713 28.352 59.3593 28.87 59.3593 29.444C59.3593 30.032 59.4713 30.55 59.6953 30.998C59.9193 31.46 60.2273 31.81 60.6333 32.062C61.0393 32.314 61.5013 32.44 62.0333 32.44C62.5513 32.44 63.0133 32.314 63.4193 32.062ZM73.6241 32.342V33H73.2041C72.7841 33 72.4901 32.902 72.2941 32.692C72.0981 32.496 72.0141 32.202 72.0421 31.824V31.53C71.8181 32.006 71.4821 32.384 71.0341 32.664C70.5721 32.944 69.9981 33.084 69.3261 33.084C68.5561 33.084 67.9401 32.902 67.4921 32.538C67.0301 32.174 66.8061 31.684 66.8061 31.054C66.8061 30.382 67.0441 29.864 67.5201 29.5C67.9961 29.136 68.6961 28.94 69.6061 28.94H72.0141V28.324C72.0141 27.736 71.8181 27.288 71.4541 26.952C71.0901 26.616 70.5721 26.448 69.9141 26.448C69.3261 26.448 68.8361 26.588 68.4721 26.84C68.1081 27.106 67.8701 27.456 67.7861 27.89H67.0721C67.1561 27.246 67.4641 26.742 67.9681 26.378C68.4721 26.014 69.1301 25.818 69.9421 25.818C70.8241 25.818 71.5101 26.042 72.0001 26.476C72.4761 26.924 72.7281 27.54 72.7281 28.352V31.656C72.7281 31.88 72.7841 32.048 72.8961 32.16C73.0081 32.286 73.1621 32.342 73.3581 32.342H73.6241ZM72.0141 29.556H69.5501C68.8921 29.556 68.3881 29.682 68.0521 29.934C67.7021 30.186 67.5341 30.55 67.5341 31.012C67.5341 31.46 67.6881 31.81 68.0241 32.076C68.3601 32.342 68.8081 32.468 69.3681 32.468C70.1801 32.468 70.8241 32.258 71.3001 31.824C71.7761 31.39 72.0141 30.83 72.0141 30.13V29.556ZM84.3923 26.602C84.8683 27.134 85.1203 27.904 85.1203 28.94V33H84.3923V28.982C84.3923 28.17 84.2103 27.554 83.8743 27.12C83.5243 26.7 83.0343 26.476 82.4183 26.476C81.7463 26.476 81.2143 26.728 80.8223 27.204C80.4303 27.68 80.2203 28.324 80.2063 29.136V33H79.4923V28.982C79.4923 28.17 79.3103 27.554 78.9603 27.12C78.6103 26.7 78.1203 26.476 77.4903 26.476C76.8183 26.476 76.2723 26.742 75.8803 27.274C75.4743 27.806 75.2783 28.52 75.2783 29.388V33H74.5783V25.902H75.1943L75.3063 27.428C75.4883 26.952 75.7823 26.56 76.1743 26.266C76.5663 25.972 77.0423 25.818 77.6163 25.818C78.1763 25.818 78.6663 25.972 79.0863 26.28C79.4923 26.588 79.7863 27.022 79.9543 27.596C80.1643 27.05 80.4863 26.616 80.9203 26.294C81.3403 25.986 81.8723 25.818 82.5023 25.818C83.2863 25.818 83.9163 26.084 84.3923 26.602ZM86.8732 27.554C87.1532 27.008 87.5312 26.588 88.0352 26.28C88.5392 25.972 89.0992 25.818 89.7432 25.818C90.3592 25.818 90.9192 25.958 91.4092 26.224C91.8852 26.49 92.2772 26.868 92.5572 27.372C92.8372 27.876 92.9912 28.478 93.0192 29.164C93.0192 29.304 93.0052 29.402 93.0052 29.458H87.2232C87.2092 29.5 87.2092 29.556 87.2092 29.626C87.2092 30.186 87.3352 30.676 87.5592 31.096C87.7832 31.516 88.0912 31.852 88.4832 32.09C88.8752 32.328 89.3092 32.44 89.8132 32.44C90.3872 32.44 90.8912 32.286 91.3252 31.964C91.7452 31.642 92.0392 31.208 92.1792 30.648H92.9072C92.7392 31.376 92.3752 31.964 91.8292 32.412C91.2832 32.86 90.6252 33.084 89.8692 33.084C89.1972 33.084 88.6092 32.93 88.0912 32.622C87.5732 32.314 87.1672 31.894 86.8872 31.334C86.6072 30.788 86.4672 30.158 86.4672 29.444C86.4672 28.744 86.5932 28.114 86.8732 27.554ZM92.2772 28.856C92.2072 28.1 91.9412 27.498 91.4932 27.078C91.0452 26.658 90.4572 26.448 89.7572 26.448C89.3232 26.448 88.9312 26.56 88.5672 26.756C88.2032 26.952 87.8952 27.232 87.6712 27.596C87.4332 27.96 87.2932 28.38 87.2652 28.856H92.2772ZM98.2306 23.2H98.9446V33H98.2306V23.2ZM101.337 23.438C101.421 23.536 101.477 23.662 101.477 23.802C101.477 23.956 101.421 24.082 101.337 24.166C101.239 24.264 101.113 24.306 100.973 24.306C100.833 24.306 100.707 24.264 100.609 24.166C100.511 24.082 100.469 23.956 100.469 23.802C100.469 23.662 100.511 23.536 100.609 23.438C100.707 23.354 100.833 23.298 100.973 23.298C101.113 23.298 101.239 23.354 101.337 23.438ZM100.623 25.902H101.337V33H100.623V25.902ZM108.322 26.616C108.826 27.148 109.092 27.96 109.092 29.024V33H108.378V29.052C108.378 28.226 108.182 27.596 107.79 27.148C107.398 26.7 106.866 26.476 106.18 26.476C105.424 26.476 104.822 26.756 104.388 27.302C103.94 27.848 103.73 28.576 103.73 29.5V33H103.016V25.902H103.632L103.744 27.414C103.954 26.938 104.276 26.546 104.71 26.252C105.13 25.972 105.662 25.818 106.292 25.818C107.132 25.818 107.818 26.084 108.322 26.616ZM110.672 23.2H111.386V30.186L115.53 25.902H116.398L113.556 28.842L116.636 33H115.768L113.052 29.36L111.386 31.068V33H110.672V23.2Z" fill="#4E4E4E"/>
<rect width="28" height="28" rx="14" transform="matrix(-1 0 0 1 219.5 13)" fill="#E4EDFF"/>
<path d="M200.357 27.6429V26.3571H208.071V25.0714H209.357V26.3571H210.643V27.6429H209.357V28.9286H208.071V27.6429H200.357ZM206.785 30.2143H208.071V28.9286H206.785V30.2143ZM206.785 30.2143H205.5V31.5H206.785V30.2143ZM206.785 23.7857H208.071V25.0714H206.785V23.7857ZM206.785 23.7857H205.5V22.5H206.785V23.7857Z" fill="#004EF3"/>
</g>
<defs>
<filter id="filter0_d_867_6034" x="4.5" y="3" width="227" height="52" filterUnits="userSpaceOnUse" color-interpolation-filters="sRGB">
<feFlood flood-opacity="0" result="BackgroundImageFix"/>
<feColorMatrix in="SourceAlpha" type="matrix" values="0 0 0 0 0 0 0 0 0 0 0 0 0 0 0 0 0 0 127 0" result="hardAlpha"/>
<feOffset dy="4"/>
<feComposite in2="hardAlpha" operator="out"/>
<feColorMatrix type="matrix" values="0 0 0 0 0.925 0 0 0 0 0.925 0 0 0 0 0.925 0 0 0 1 0"/>
<feBlend mode="normal" in2="BackgroundImageFix" result="effect1_dropShadow_867_6034"/>
<feBlend mode="normal" in="SourceGraphic" in2="effect1_dropShadow_867_6034" result="shape"/>
</filter>
</defs>
</svg>
